<?xml version="1.0" encoding="UTF-8" standalone="no"?><!DOCTYPE svg PUBLIC "-//W3C//DTD SVG 1.1//EN" "http://www.w3.org/Graphics/SVG/1.1/DTD/svg11.dtd"><svg width="100%" height="100%" viewBox="0 0 32 32" version="1.1" xmlns="http://www.w3.org/2000/svg" xmlns:xlink="http://www.w3.org/1999/xlink" xml:space="preserve" xmlns:serif="http://www.serif.com/" style="fill-rule:evenodd;clip-rule:evenodd;"><g id="g4276"><rect id="g42761" serif:id="g4276" x="0.002" y="-0.038" width="32.022" height="32.155" style="fill:#282828;"/></g><g id="g1806"><circle id="circle2" cx="15.754" cy="16" r="13.517" style="fill:#535353;"/><path id="path4" d="M22.693,4.574c0.056,-0.02 0.102,-0.052 0.149,-0.083c-2.061,-1.272 -4.488,-2.008 -7.088,-2.008c-2.859,0 -5.509,0.89 -7.692,2.405c0.011,0.054 0.026,0.107 0.05,0.159c0.922,1.986 2.108,5.358 4.134,6.135c0.985,0.377 1.895,0.235 2.829,0.693c0.099,0.048 0.245,0.162 0.308,0.254c0.474,0.694 0.201,1.711 0.672,1.96c0.372,0.196 0.584,0.598 0.425,0.989c-0.649,1.593 -0.088,3.415 1.422,4.665c1.063,0.88 0.179,2.92 -0.715,4.521c-0.32,0.573 0.25,1.235 0.867,1.015c0.977,-0.348 1.786,-0.851 2.722,-1.657c1.358,-1.167 1.652,-2.44 2.998,-3.431c0.014,-0.011 0.026,-0.025 0.032,-0.042c0.344,-1.009 1.412,-3.21 0.334,-3.771c-1.007,-0.523 -1.384,-2.037 -2.366,-3.069c-0.113,-0.119 -0.273,-0.177 -0.435,-0.198c-1.205,-0.156 -1.746,-1.071 -2.557,-0.462c-0.607,0.456 -1.289,0.178 -1.501,-0.551c-0.069,-0.238 -0.19,-0.45 -0.627,-0.585c-0.332,-0.102 -0.493,-0.478 -0.374,-0.804c0.002,-0.004 0.003,-0.01 0.005,-0.014c0.16,-0.436 -0.741,-0.369 -1.198,-0.293c-0.128,0.022 0.307,-0.496 0.164,-0.412c-0.563,0.332 -1.262,-0.242 -1.232,-0.895c0.031,-0.662 0.154,-0.63 1.29,-0.761c1.222,-0.569 1.813,-0.154 1.774,1.244c0.756,0.111 1.019,-0.222 0.792,-1.002c-0.067,-0.228 -0.013,-0.482 0.131,-0.67c1.393,-1.811 2.556,-2.601 4.687,-3.332Z" style="fill:#8a8a8a;fill-rule:nonzero;"/><path id="path848" d="M15.869,14.969l-5.04,5.04l1.489,0.917l-0.917,2.634l6.071,2.52l4.926,0l-0.802,-1.603l2.52,-1.948l-0.801,-1.374" style="fill:none;stroke:#fff;stroke-width:1.03px;"/></g></svg>